<?xml version="1.0" standalone="no"?>
<!DOCTYPE svg PUBLIC "-//W3C//DTD SVG 20010904//EN"
 "http://www.w3.org/TR/2001/REC-SVG-20010904/DTD/svg10.dtd">
<svg version="1.0" xmlns="http://www.w3.org/2000/svg"
 width="1600.000000pt" height="1600.000000pt" viewBox="0 0 1600.000000 1600.000000"
 preserveAspectRatio="xMidYMid meet">
<metadata>
Created by potrace 1.11, written by Peter Selinger 2001-2013
</metadata>
<g transform="translate(0.000000,1600.000000) scale(0.100000,-0.100000)"
fill="#000000" stroke="none">
<path d="M7608 15995 c-2 -1 -59 -5 -128 -9 -69 -4 -137 -8 -150 -10 -14 -3
-59 -7 -100 -11 -41 -3 -104 -10 -140 -15 -36 -5 -87 -12 -114 -15 -27 -3 -52
-8 -55 -9 -3 -2 -28 -6 -56 -10 -64 -8 -77 -10 -280 -51 -172 -35 -299 -66
-435 -105 -41 -12 -88 -25 -105 -30 -34 -9 -223 -68 -245 -77 -8 -3 -19 -7
-25 -9 -5 -1 -48 -16 -95 -34 -618 -229 -1150 -517 -1669 -902 -75 -56 -138
-104 -141 -107 -3 -3 -39 -33 -80 -66 -41 -32 -77 -61 -80 -64 -3 -4 -23 -21
-45 -40 -119 -100 -208 -184 -375 -351 -197 -196 -275 -281 -415 -450 -48 -58
-96 -116 -107 -129 -116 -138 -350 -479 -482 -701 -155 -261 -309 -562 -401
-785 -20 -49 -43 -103 -50 -120 -83 -188 -252 -727 -291 -925 -3 -14 -9 -38
-14 -55 -7 -25 -40 -181 -54 -260 -2 -11 -7 -38 -11 -60 -12 -67 -14 -77 -25
-165 -17 -125 -20 -152 -25 -180 -2 -14 -7 -54 -10 -90 -3 -36 -8 -83 -10
-105 -27 -282 -27 -899 0 -1145 2 -19 6 -62 10 -95 3 -33 7 -76 10 -95 2 -19
7 -57 10 -85 4 -27 8 -61 10 -75 12 -74 35 -218 39 -236 2 -12 7 -38 10 -59 4
-20 10 -56 16 -78 5 -23 19 -87 31 -142 20 -96 62 -258 95 -375 35 -119 46
-156 53 -175 4 -11 21 -60 36 -110 148 -468 434 -1056 743 -1530 123 -188 352
-499 454 -616 13 -15 41 -48 63 -75 22 -27 47 -55 55 -64 8 -9 46 -52 85 -96
38 -43 535 -546 1105 -1117 569 -571 1674 -1679 2456 -2462 l1421 -1425 2401
2403 c1320 1321 2413 2416 2429 2433 153 166 340 396 480 589 82 114 238 347
267 400 9 17 34 59 56 94 22 34 40 64 40 65 0 1 27 52 61 112 56 100 180 350
242 484 80 178 210 528 281 760 63 208 169 667 191 830 3 25 8 56 10 70 8 58
17 117 20 140 5 26 11 83 21 190 3 36 8 79 10 95 19 174 26 811 11 995 -15
172 -18 206 -22 240 -2 19 -7 58 -10 85 -10 89 -16 140 -20 165 -2 14 -7 45
-10 70 -3 25 -8 56 -10 70 -3 14 -7 41 -10 60 -12 77 -68 342 -96 460 -132
542 -340 1087 -602 1575 -73 136 -263 463 -277 475 -7 7 -84 122 -90 136 -6
12 -209 295 -240 334 -273 341 -353 431 -610 689 -176 177 -330 319 -469 431
-23 19 -53 43 -64 54 -12 10 -56 44 -97 75 -41 31 -77 59 -80 62 -10 13 -230
169 -350 249 -483 321 -1022 585 -1564 765 -228 76 -552 166 -686 191 -14 3
-32 7 -40 9 -8 3 -33 7 -55 11 -22 3 -43 8 -46 10 -5 3 -253 45 -339 58 -83
12 -292 35 -370 41 -47 4 -105 9 -130 11 -51 6 -717 14 -722 9z m728 -2099
c139 -10 180 -14 281 -27 117 -15 119 -15 188 -28 33 -6 76 -13 95 -16 141
-23 460 -110 636 -173 652 -233 1215 -591 1709 -1088 185 -185 324 -351 510
-609 98 -136 287 -465 367 -640 71 -157 87 -193 136 -326 42 -112 114 -333
127 -389 2 -8 11 -44 20 -80 15 -63 40 -168 50 -220 11 -50 54 -337 59 -390 4
-30 9 -89 13 -130 16 -154 6 -775 -12 -833 -2 -7 -6 -41 -10 -77 -18 -192 -85
-508 -157 -745 -38 -126 -104 -317 -129 -372 -10 -23 -19 -46 -19 -51 0 -5
-13 -36 -30 -70 -16 -34 -30 -65 -30 -68 0 -16 -158 -320 -247 -474 -28 -49
-166 -263 -183 -283 -5 -6 -46 -61 -91 -122 -45 -60 -85 -112 -88 -115 -4 -3
-16 -17 -27 -32 -187 -243 -530 -571 -839 -802 -314 -235 -570 -383 -955 -554
-228 -102 -591 -215 -855 -268 -52 -10 -244 -44 -280 -49 -235 -32 -366 -40
-640 -39 -199 1 -368 8 -435 19 -14 2 -50 7 -80 11 -182 21 -339 51 -549 104
-197 49 -485 144 -606 200 -11 5 -54 23 -95 40 -158 66 -449 223 -640 348
-390 253 -767 592 -1066 957 -403 493 -701 1079 -863 1696 -16 64 -32 127 -35
140 -2 13 -7 35 -10 49 -3 14 -8 36 -10 50 -2 14 -7 36 -10 50 -3 14 -8 36
-10 50 -2 14 -7 41 -10 60 -7 40 -12 83 -21 160 -4 30 -9 66 -11 80 -26 163
-26 787 0 950 3 14 7 52 11 85 3 33 8 67 10 75 2 8 6 38 10 65 9 76 60 316 94
446 31 117 125 408 143 442 5 10 11 26 13 35 12 57 231 520 276 584 11 14 19
29 19 32 0 11 130 218 208 331 78 113 116 165 180 244 20 25 44 54 52 65 193
247 527 567 830 795 293 219 604 402 915 536 61 26 124 53 140 60 225 99 710
229 1000 270 22 3 51 8 65 10 14 2 57 7 95 11 39 3 79 8 89 10 10 2 71 6 135
10 64 3 117 7 118 8 5 5 353 -2 449 -8z"/>
</g>
</svg>
